<svg xmlns="http://www.w3.org/2000/svg" viewBox="0 0 512 512"><path fill="currentColor" d="M170.602,345.829H341.3971a1.0254,1.0254,0,0,0,1.0254-1.0254V232.82H169.5766v111.984A1.0254,1.0254,0,0,0,170.602,345.829Z"/><path d="M341.3971,183.6616H170.6011a1.0245,1.0245,0,0,0-1.0245,1.0245v29.2362H342.4225V184.687A1.0254,1.0254,0,0,0,341.3971,183.6616ZM197.7286,206.54h-11.83V193.945h11.8305Zm21.4587,0h-11.826V193.945h11.826Zm21.4578,0H228.82V193.945h11.8251Z"/><path d="M256,73.8247a182.18,182.18,0,0,0-182.18,182.18c0,100.6083,81.567,182.1708,182.18,182.1708,100.6083,0,182.18-81.5625,182.18-182.1708A182.1828,182.1828,0,0,0,256,73.8247Zm102.1929,290.91H153.802a3.1254,3.1254,0,0,1-3.1254-3.1254v-193.72a3.1241,3.1241,0,0,1,3.1241-3.1241H358.1939a3.125,3.125,0,0,1,3.125,3.125V361.6084A3.1261,3.1261,0,0,1,358.1929,364.7344Z"/></svg>