<svg xmlns="http://www.w3.org/2000/svg" viewBox="0 0 512 512"><path fill="currentColor" d="M256,229.1229a34.2468,34.2468,0,1,1-34.2514,34.2512A34.2462,34.2462,0,0,1,256,229.1229Z"/><path fill="currentColor" d="M256,73.8206A182.1794,182.1794,0,1,0,438.18,256,182.1821,182.1821,0,0,0,256,73.8206Zm95.73,208.6525-25.875,1.67a72.5,72.5,0,0,1-5.7654,13.9391l17.1126,19.486-27.009,27.0171-19.4859-17.1207a71.9362,71.9362,0,0,1-13.9392,5.7654l-1.6695,25.875H236.8931l-1.6795-25.875a72.3245,72.3245,0,0,1-13.93-5.7654l-19.4769,17.1207-27.009-27.0262,17.1036-19.4769a71.9036,71.9036,0,0,1-5.7564-13.9391l-25.884-1.6785V244.2663l25.884-1.6695a72.4777,72.4777,0,0,1,5.7564-13.9393L174.7975,209.19l27.009-27.027,19.4769,17.1126a72.14,72.14,0,0,1,13.9392-5.7564l1.6705-25.884h38.2058l1.6695,25.884a71.9071,71.9071,0,0,1,13.9392,5.7564l19.4859-17.1126,27.009,27.027L320.09,228.6575a72.1475,72.1475,0,0,1,5.7654,13.9393l25.875,1.6695Z"/></svg>