<?xml version="1.0" encoding="iso-8859-1"?>
<!-- Generator: Adobe Illustrator 19.0.0, SVG Export Plug-In . SVG Version: 6.00 Build 0)  -->
<svg version="1.1" id="Layer_1" xmlns="http://www.w3.org/2000/svg" xmlns:xlink="http://www.w3.org/1999/xlink" x="0px" y="0px"
	 viewBox="0 0 512 512" style="enable-background:new 0 0 512 512;" xml:space="preserve">
<path style="fill:#F2E8D1;" d="M256,29.642C130.986,29.642,29.642,130.986,29.642,256S130.986,482.358,256,482.358
	S482.358,381.014,482.358,256S381.014,29.642,256,29.642z M256,385.347c-71.436,0-129.347-57.911-129.347-129.347
	S184.564,126.653,256,126.653S385.347,184.564,385.347,256S327.436,385.347,256,385.347z"/>
<path style="fill:#8EC155;" d="M158.989,417.684c0,47.625-38.607,86.232-86.232,86.232H8.084v-64.674
	c0-47.625,38.607-86.232,86.232-86.232h64.674V417.684z"/>
<path style="fill:#84AB4F;" d="M158.989,353.01v64.674c0,47.625-38.607,86.232-86.232,86.232H29.642
	c47.625,0,86.232-38.607,86.232-86.232V353.01H158.989z"/>
<path style="fill:#FFBBA4;" d="M272.168,503.916c-20.836,0-37.726-16.891-37.726-37.726s16.891-37.726,37.726-37.726
	c20.836,0,37.726,16.891,37.726,37.726S293.004,503.916,272.168,503.916z"/>
<g>
	<path style="fill:#FF977B;" d="M309.895,466.189c0,20.836-16.891,37.726-37.726,37.726c-3.747,0-7.363-0.554-10.779-1.572
		c15.582-4.639,26.947-19.066,26.947-36.155s-11.365-31.517-26.947-36.155c3.416-1.018,7.032-1.572,10.779-1.572
		C293.004,428.463,309.895,445.354,309.895,466.189z"/>
	<path style="fill:#FF977B;" d="M45.811,288.337c-20.836,0-37.726-16.891-37.726-37.726s16.891-37.726,37.726-37.726
		s37.726,16.891,37.726,37.726S66.646,288.337,45.811,288.337z"/>
</g>
<path style="fill:#FF7A66;" d="M83.537,250.611c0,16.03-10.003,29.716-24.104,35.18c1.638-4.226,2.546-8.817,2.546-13.622
	c0-20.836-16.891-37.726-37.726-37.726c-4.805,0-9.396,0.908-13.622,2.546c5.464-14.101,19.15-24.104,35.18-24.104
	C66.646,212.884,83.537,229.775,83.537,250.611z"/>
<path style="fill:#FFDBC3;" d="M56.589,374.568c-26.789,0-48.505-21.716-48.505-48.505s21.716-48.505,48.505-48.505
	s48.505,21.716,48.505,48.505S83.378,374.568,56.589,374.568z"/>
<path style="fill:#FFBBA4;" d="M105.095,326.063c0,26.789-21.716,48.505-48.505,48.505c-0.917,0-1.827-0.031-2.732-0.081
	c5.128-7.692,8.122-16.928,8.122-26.867c0-25.872-20.256-47.007-45.773-48.424c8.694-13.043,23.533-21.639,40.383-21.639
	C83.378,277.558,105.095,299.274,105.095,326.063z"/>
<path style="fill:#FFF2D8;" d="M99.705,309.895c-26.789,0-48.505-21.716-48.505-48.505s21.716-48.505,48.505-48.505
	s48.505,21.716,48.505,48.505S126.494,309.895,99.705,309.895z"/>
<path style="fill:#FFDBC3;" d="M148.211,261.389c0,26.789-21.716,48.505-48.505,48.505c-5.671,0-11.11-0.982-16.168-2.771
	c18.837-6.66,32.337-24.617,32.337-45.734c0-21.118-13.5-39.075-32.337-45.734c5.059-1.788,10.498-2.771,16.168-2.771
	C126.494,212.884,148.211,234.601,148.211,261.389z"/>
<path style="fill:#FF7A66;" d="M196.716,503.916c-26.789,0-48.505-21.716-48.505-48.505c0-26.789,21.716-48.505,48.505-48.505
	s48.505,21.716,48.505,48.505C245.221,482.199,223.505,503.916,196.716,503.916z"/>
<path style="fill:#F95948;" d="M245.221,455.41c0,26.789-21.716,48.505-48.505,48.505c-6.69,0-13.064-1.355-18.863-3.805
	c17.419-7.36,29.642-24.603,29.642-44.7c0-20.097-12.223-37.341-29.642-44.7c5.798-2.45,12.173-3.805,18.863-3.805
	C223.505,406.905,245.221,428.622,245.221,455.41z"/>
<path style="fill:#FFDBC3;" d="M261.389,460.8c-26.789,0-48.505-21.716-48.505-48.505s21.716-48.505,48.505-48.505
	s48.505,21.716,48.505,48.505S288.178,460.8,261.389,460.8z"/>
<g>
	<path style="fill:#FFBBA4;" d="M309.895,412.295c0,26.789-21.716,48.505-48.505,48.505c-3.707,0-7.31-0.43-10.779-1.217
		c21.598-4.903,37.726-24.206,37.726-47.288c0-23.082-16.129-42.385-37.726-47.288c3.469-0.787,7.072-1.217,10.779-1.217
		C288.178,363.789,309.895,385.506,309.895,412.295z"/>
	<path style="fill:#FFBBA4;" d="M148.211,460.8c-53.578,0-97.011-43.433-97.011-97.011s43.433-97.011,97.011-97.011
		s97.011,43.433,97.011,97.011S201.788,460.8,148.211,460.8z"/>
</g>
<path style="fill:#F95948;" d="M148.211,399.066c-19.483,0-35.276-15.793-35.276-35.276c0-19.483,15.793-35.276,35.276-35.276
	s35.276,15.793,35.276,35.276C183.487,383.272,167.693,399.066,148.211,399.066z"/>
<path style="fill:#D83C39;" d="M183.487,363.789c0,19.483-15.794,35.276-35.276,35.276c-3.223,0-6.342-0.441-9.309-1.25
	c14.964-4.085,25.968-17.767,25.968-34.026s-11.003-29.941-25.968-34.026c2.966-0.81,6.086-1.25,9.309-1.25
	C167.693,328.513,183.487,344.306,183.487,363.789z"/>
<path style="fill:#FF977B;" d="M245.221,363.789c0,53.578-43.433,97.011-97.011,97.011c-3.644,0-7.239-0.208-10.779-0.599
	c48.504-5.363,86.232-46.478,86.232-96.411s-37.727-91.049-86.232-96.411c3.54-0.391,7.135-0.599,10.779-0.599
	C201.788,266.779,245.221,310.212,245.221,363.789z"/>
<path d="M232.78,61.705c0.707,4.409-2.293,8.555-6.701,9.262c-67.502,10.829-123.707,57.636-146.68,122.157
	c-1.178,3.309-4.293,5.374-7.615,5.374c-0.9,0-1.815-0.152-2.712-0.471c-4.206-1.498-6.402-6.121-4.904-10.327
	c24.954-70.086,86.014-120.933,159.349-132.697C227.926,54.29,232.073,57.297,232.78,61.705z M36.665,199.251
	c4.282,1.268,8.781-1.171,10.05-5.451C73.982,101.906,160.044,37.726,256,37.726c108.021,0,200.921,80.513,216.092,187.282
	c0.573,4.036,4.032,6.948,7.994,6.948c0.378,0,0.762-0.026,1.147-0.081c4.42-0.628,7.495-4.721,6.866-9.141
	c-3.436-24.189-10.645-47.519-21.203-69.212c0.622-0.712,1.125-1.544,1.472-2.468c0.128-0.34,0.234-0.69,0.316-1.047l21.517-86.069
	c1.083-4.332-1.55-8.721-5.882-9.805c-4.323-1.078-8.72,1.551-9.803,5.882L460.8,114.879l-24.494-97.976
	c-1.083-4.332-5.475-6.966-9.803-5.882c-4.332,1.083-6.965,5.472-5.882,9.805l23.975,95.897
	c-9.985-13.506-21.462-26.003-34.285-37.222c-18.099-15.835-38.368-28.656-60.045-38.171c0.033-0.3,0.051-0.601,0.051-0.908V18.863
	c0-4.466-3.62-8.084-8.084-8.084s-8.084,3.618-8.084,8.084v16.089C309.257,26.156,282.854,21.558,256,21.558
	c-23.149,0-45.764,3.308-67.368,9.767V8.084c0-4.466-3.62-8.084-8.084-8.084c-4.465,0-8.084,3.618-8.084,8.084v28.732
	c-20.531,7.835-39.989,18.623-57.926,32.215c-16.76,12.7-31.72,27.653-44.474,44.271v-11.442c0-4.466-3.62-8.084-8.084-8.084
	s-8.084,3.618-8.084,8.084v32.337c0,0.846,0.13,1.662,0.371,2.428c-9.803,16.504-17.593,34.18-23.052,52.573
	C29.944,193.481,32.384,197.98,36.665,199.251z M409.477,225.023c0.771,3.841,4.146,6.494,7.918,6.494
	c0.527,0,1.062-0.052,1.599-0.158c4.377-0.878,7.214-5.139,6.336-9.517c-7.273-36.239-25.649-68.614-53.141-93.626
	c-3.302-3.003-8.414-2.763-11.42,0.54c-3.004,3.302-2.763,8.416,0.54,11.42C386.231,162.849,402.888,192.19,409.477,225.023z
	 M256,114.159c-51.814,0-99.496,28.246-124.439,73.716c-2.147,3.915-0.715,8.828,3.2,10.976c3.916,2.147,8.829,0.714,10.976-3.199
	c3.78-6.892,8.149-13.335,13.024-19.285h25.827c4.465,0,8.084-3.618,8.084-8.084s-3.62-8.084-8.084-8.084h-9.933
	c22.367-18.981,51.059-29.872,81.343-29.872c12.095,0,23.862,1.718,35.032,4.945v23.717c0,4.466,3.62,8.084,8.084,8.084
	c4.465,0,8.084-3.618,8.084-8.084v-17.812c34.354,15.291,60.959,45.634,70.64,83.893c0.927,3.663,4.218,6.103,7.832,6.103
	c0.655,0,1.324-0.081,1.989-0.249c4.329-1.095,6.949-5.492,5.854-9.82C377.581,158.136,321.034,114.159,256,114.159z
	 M174.043,122.602c3.802-2.341,4.985-7.321,2.645-11.123c-2.341-3.802-7.322-4.986-11.123-2.645
	c-30.224,18.612-53.696,45.597-67.882,78.04c-1.788,4.092,0.078,8.858,4.169,10.646c1.054,0.461,2.153,0.679,3.234,0.679
	c3.115,0,6.084-1.812,7.412-4.847C125.357,163.941,146.639,139.476,174.043,122.602z M344.317,107.551
	C317.695,91.68,287.155,83.291,256,83.291c-21.708,0-42.878,3.977-62.923,11.823c-4.157,1.628-6.209,6.316-4.582,10.475
	c1.628,4.157,6.318,6.21,10.475,4.582c18.16-7.108,37.348-10.712,57.031-10.712c28.242,0,55.918,7.6,80.038,21.98
	c1.298,0.774,2.724,1.141,4.132,1.141c2.754,0,5.439-1.409,6.951-3.945C349.407,114.8,348.152,109.837,344.317,107.551z
	 M328.359,378.02c32.439-19.275,56.241-51.243,65.302-87.707c1.077-4.333-1.563-8.718-5.896-9.795
	c-4.331-1.081-8.718,1.563-9.795,5.896c-3.815,15.351-10.58,29.804-19.717,42.579l-29.701-128.705
	c-1.005-4.35-5.346-7.06-9.696-6.059c-4.35,1.004-7.063,5.344-6.06,9.695l11.101,48.103L303.6,238.495
	c-3.714-2.477-8.735-1.473-11.21,2.242c-2.477,3.714-1.473,8.734,2.242,11.21l32.337,21.558c0.672,0.447,1.384,0.781,2.118,1.007
	l16.047,69.538c0.03,0.133,0.065,0.263,0.101,0.392c-7.471,7.557-15.908,14.196-25.134,19.679c-3.838,2.28-5.101,7.241-2.821,11.079
	c1.511,2.543,4.199,3.956,6.958,3.956C325.642,379.156,327.064,378.789,328.359,378.02z M191.571,363.789
	c0,23.91-19.452,43.362-43.36,43.362s-43.36-19.452-43.36-43.362c0-23.91,19.452-43.362,43.36-43.362
	S191.571,339.88,191.571,363.789z M175.403,363.789c0-14.994-12.199-27.193-27.192-27.193c-14.994,0-27.192,12.199-27.192,27.193
	s12.199,27.193,27.192,27.193S175.403,378.783,175.403,363.789z M503.916,247.916h-44.499
	C455.159,139.396,365.545,52.426,256,52.426c-4.465,0-8.084,3.618-8.084,8.084s3.62,8.084,8.084,8.084
	c100.63,0,182.991,79.718,187.235,179.322h-57.887c-4.465,0-8.084,3.618-8.084,8.084s3.62,8.084,8.084,8.084h57.891
	c-0.933,22.188-5.719,43.734-14.259,64.16c-1.722,4.119,0.221,8.855,4.34,10.577c1.02,0.426,2.076,0.627,3.116,0.627
	c3.163,0,6.166-1.867,7.461-4.967c9.371-22.412,14.582-46.055,15.525-70.398h44.496c4.465,0,8.084-3.618,8.084-8.084
	S508.38,247.916,503.916,247.916z M317.979,412.295c0,10.374-2.806,20.103-7.698,28.473c4.998,7.486,7.698,16.314,7.698,25.422
	c0,25.26-20.55,45.811-45.811,45.811c-13.897,0-26.817-6.305-35.393-16.721C226.47,505.615,212.242,512,196.716,512
	c-22.745,0-42.85-13.715-51.741-33.673C127.201,499.383,100.67,512,72.758,512H8.084C3.62,512,0,508.382,0,503.916v-64.674
	c0-24.525,9.72-47.952,26.344-65.331C10.094,363.655,0,345.724,0,326.063c0-15.559,6.366-29.774,16.685-40.065
	C6.207,277.415,0,264.574,0,250.611C0,225.35,20.55,204.8,45.811,204.8c9.064,0,17.933,2.709,25.42,7.699
	c8.37-4.893,18.101-7.699,28.475-7.699c30.402,0,55.281,24.101,56.54,54.199c51.748,3.93,93.142,45.497,96.798,97.318
	c2.751-0.406,5.538-0.611,8.347-0.611C292.593,355.705,317.979,381.092,317.979,412.295z M59.284,261.389
	c0,11.357,4.802,22.14,13.057,29.748c17.379-18.141,41.185-30.083,67.717-32.13c-1.237-21.183-18.863-38.039-40.352-38.039
	C77.417,220.968,59.284,239.101,59.284,261.389z M30.372,275.924c4.228-2.224,8.771-3.927,13.551-5.023
	c-0.534-3.118-0.808-6.298-0.808-9.511c0-14.572,5.537-27.875,14.616-37.917c-3.732-1.637-7.794-2.504-11.92-2.504
	c-16.345,0-29.642,13.298-29.642,29.642C16.168,261.068,21.551,270.556,30.372,275.924z M39.315,362.621
	c1.265-0.912,2.552-1.791,3.869-2.643c0.749-20.894,7.625-40.254,18.885-56.331c-5.489-4.897-9.93-10.782-13.13-17.282
	c-18.728,3.596-32.77,20.164-32.77,39.698C16.168,341.78,25.198,355.95,39.315,362.621z M132.792,467.756
	c-20.024-2.957-38.232-11.584-52.926-24.189l-33.729,33.729c-3.157,3.156-8.276,3.156-11.432,0c-3.157-3.158-3.157-8.276,0-11.433
	l33.729-33.728c-12.597-14.684-21.221-32.875-24.184-52.884c-17.562,14.728-28.082,36.765-28.082,59.991v56.589h56.589
	C96.362,495.832,118.056,485.52,132.792,467.756z M237.137,363.789c0-49.033-39.892-88.926-88.926-88.926
	s-88.926,39.893-88.926,88.926s39.892,88.926,88.926,88.926S237.137,412.823,237.137,363.789z M236.412,463.061
	c-8.461-4.167-15.834-10.417-21.341-18.247c-15.712,12.988-35.251,21.504-56.646,23.577c5.463,16.068,20.781,27.44,38.29,27.44
	C216.193,495.832,232.81,481.77,236.412,463.061z M301.811,466.189c0-4.145-0.863-8.198-2.501-11.925
	c-10.042,9.081-23.347,14.619-37.92,14.619c-3.223,0-6.404-0.275-9.516-0.807c-1.099,4.773-2.805,9.309-5.031,13.533
	c5.336,8.746,14.906,14.222,25.325,14.222C288.514,495.832,301.811,482.534,301.811,466.189z M301.811,412.295
	c0-22.289-18.132-40.421-40.421-40.421c-2.865,0-5.698,0.296-8.464,0.885c-1.965,23.146-11.466,44.178-26.029,60.625
	c7.282,11.889,20.322,19.332,34.493,19.332C283.678,452.716,301.811,434.583,301.811,412.295z M336.035,390.562
	c-3.835,2.286-5.091,7.249-2.805,11.084c1.513,2.537,4.197,3.945,6.952,3.945c1.408,0,2.834-0.369,4.132-1.141
	c41.671-24.842,71.143-66.222,80.86-113.529c0.898-4.374-1.919-8.647-6.293-9.545c-4.372-0.897-8.647,1.918-9.545,6.293
	C400.531,330.537,373.814,368.041,336.035,390.562z M482.358,355.705h-14.157c9.76-20.718,16.546-43,19.868-66.224
	c0.632-4.419-2.438-8.514-6.858-9.147c-4.422-0.625-8.515,2.437-9.147,6.859c-10.99,76.834-62.681,142.547-134.897,171.494
	c-4.145,1.661-6.157,6.367-4.496,10.512c1.265,3.159,4.3,5.079,7.506,5.079c1.001,0,2.019-0.188,3.005-0.582
	c3.768-1.51,7.489-3.117,11.151-4.811c0.009,0,0.017,0,0.026,0h41.768c4.465,0,8.084-3.618,8.084-8.084
	c0-4.466-3.62-8.084-8.084-8.084h-12.54c31.616-20.553,57.724-48.396,76.215-80.842h22.556c4.465,0,8.084-3.618,8.084-8.084
	C490.442,359.325,486.823,355.705,482.358,355.705z M430.372,361.114c2.309-3.822,1.082-8.791-2.74-11.1
	c-3.822-2.309-8.791-1.081-11.099,2.74c-20.467,33.884-51.792,60.94-88.202,76.188c-4.119,1.725-6.059,6.461-4.334,10.58
	c1.298,3.098,4.299,4.963,7.46,4.963c1.041,0,2.1-0.203,3.119-0.629C374.125,427.293,408.146,397.908,430.372,361.114z"/>
<g>
</g>
<g>
</g>
<g>
</g>
<g>
</g>
<g>
</g>
<g>
</g>
<g>
</g>
<g>
</g>
<g>
</g>
<g>
</g>
<g>
</g>
<g>
</g>
<g>
</g>
<g>
</g>
<g>
</g>
</svg>
